<svg width="20" height="17" viewBox="0 0 20 17" fill="none" xmlns="http://www.w3.org/2000/svg">
<path d="M19.2683 15.3594C19.6724 15.3594 20 15.6328 20 15.9701C20 16.2793 19.7247 16.5348 19.3676 16.5752L19.2683 16.5808H11.6344C11.2303 16.5808 10.9027 16.3074 10.9027 15.9701C10.9027 15.6609 11.178 15.4054 11.5351 15.3649L11.6344 15.3594H19.2683ZM11.8436 1.3646C13.2289 0.208341 15.4758 0.208341 16.8612 1.3646L18.2993 2.56497C19.6846 3.72123 19.6846 5.59664 18.2993 6.7529L7.48956 15.7753C6.87145 16.2912 6.03341 16.5807 5.15868 16.5807H0.731712C0.320461 16.5807 -0.0100169 16.2979 0.00023211 15.9548L0.111591 12.2264C0.13373 11.5217 0.479189 10.8499 1.0763 10.3516L11.8436 1.3646ZM11.0067 3.78883L2.11109 11.2152C1.77918 11.4923 1.58682 11.8664 1.57453 12.2576L1.48161 15.3588L5.15868 15.3593C5.59136 15.3593 6.00745 15.2321 6.33587 15.0025L6.45477 14.9116L15.3944 7.45016L11.0067 3.78883ZM15.8264 2.22829C15.0125 1.54904 13.6922 1.54904 12.8784 2.22829L12.0422 2.92505L16.4289 6.58639L17.2645 5.88921C18.0331 5.24769 18.0758 4.22906 17.3926 3.54564L17.2645 3.42866L15.8264 2.22829Z" fill="#B20000"/>
</svg>
