<svg width="24" height="23" viewBox="0 0 24 23" fill="none" xmlns="http://www.w3.org/2000/svg">
<path d="M8.4375 3.85267H8.25C8.35313 3.85267 8.4375 3.76853 8.4375 3.66569V3.85267H15.5625V3.66569C15.5625 3.76853 15.6469 3.85267 15.75 3.85267H15.5625V5.53547H17.25V3.66569C17.25 2.84065 16.5773 2.16986 15.75 2.16986H8.25C7.42266 2.16986 6.75 2.84065 6.75 3.66569V5.53547H8.4375V3.85267ZM20.25 5.53547H3.75C3.33516 5.53547 3 5.8697 3 6.28339V7.0313C3 7.13414 3.08437 7.21828 3.1875 7.21828H4.60312L5.18203 19.442C5.21953 20.239 5.88047 20.8677 6.67969 20.8677H17.3203C18.1219 20.8677 18.7805 20.2413 18.818 19.442L19.3969 7.21828H20.8125C20.9156 7.21828 21 7.13414 21 7.0313V6.28339C21 5.8697 20.6648 5.53547 20.25 5.53547ZM17.1398 19.1849H6.86016L6.29297 7.21828H17.707L17.1398 19.1849Z" fill="#B30000"/>
</svg>
