<svg width="22" height="20" viewBox="0 0 22 20" fill="none" xmlns="http://www.w3.org/2000/svg">
<path d="M10.9966 12.5001C12.97 12.5001 14.5406 10.6813 14.5406 8.43756C14.5406 6.19381 12.9408 4.37506 10.9966 4.37506C9.02309 4.37506 7.4525 6.19381 7.4525 8.43756C7.42156 10.6797 9.02344 12.5001 10.9966 12.5001ZM12.7153 13.7501H9.28469C6.58625 13.7501 4.4 16.0821 4.4 18.9571C4.4 19.5352 4.83656 20.0001 5.37625 20.0001H16.6238C17.1634 20.0001 17.6 19.5352 17.6 18.9571C17.6 16.0821 15.4137 13.7501 12.7153 13.7501ZM17.6 6.25006C19.1187 6.25006 20.35 4.85084 20.35 3.12506C20.35 1.39928 19.1194 6.10352e-05 17.6 6.10352e-05C16.0813 6.10352e-05 14.85 1.39928 14.85 3.12506C14.85 4.85084 16.0806 6.25006 17.6 6.25006ZM6.32156 8.43756C6.32156 8.22471 6.35533 8.02233 6.37687 7.81608C6.00188 7.58209 5.58938 7.50006 5.15281 7.50006H3.02775C1.35575 7.50006 0 9.13287 0 11.1446C0 11.5469 0.271116 11.8751 0.605688 11.8751H7.4635C6.76156 10.9454 6.32156 9.75397 6.32156 8.43756ZM4.4 6.25006C5.91869 6.25006 7.15 4.85084 7.15 3.12506C7.15 1.39928 5.91937 6.10352e-05 4.4 6.10352e-05C2.88131 6.10352e-05 1.65 1.39928 1.65 3.12506C1.65 4.85084 2.88131 6.25006 4.4 6.25006ZM18.9716 7.50006H16.8458C16.4058 7.50006 15.9906 7.61869 15.6131 7.82194C15.6338 8.0274 15.6681 8.22662 15.6681 8.43756C15.6681 9.75436 15.2288 10.9458 14.5283 11.8751H21.3929C21.7284 11.8751 22 11.5469 22 11.1446C22 9.13287 20.6456 7.50006 18.9716 7.50006Z" fill="white"/>
</svg>
