<svg width="48" height="48" viewBox="0 0 48 48" fill="none" xmlns="http://www.w3.org/2000/svg">
<circle cx="24" cy="24" r="24" fill="#315996"/>
<g clip-path="url(#clip0_903_1660)">
<path d="M32 8H14C11.7906 8 10 9.79063 10 12V36C10 38.2094 11.7906 40 14 40H32C34.2094 40 36 38.2094 36 36V12C36 9.79063 34.2062 8 32 8ZM23 16C25.2094 16 27 17.7906 27 20C27 22.2094 25.2094 24 23 24C20.7913 24 19 22.2094 19 20C19 17.7906 20.7937 16 23 16ZM29 32H17C16.45 32 16 31.55 16 31C16 28.2375 18.2375 26 21 26H25C27.7612 26 30 28.2388 30 31C30 31.55 29.55 32 29 32ZM39 12H38V18H39C39.55 18 40 17.55 40 17V13C40 12.4475 39.55 12 39 12ZM39 20H38V26H39C39.55 26 40 25.55 40 25V21C40 20.45 39.55 20 39 20ZM39 28H38V34H39C39.5522 34 40 33.5522 40 33V29C40 28.45 39.55 28 39 28Z" fill="white"/>
</g>
<defs>
<clipPath id="clip0_903_1660">
<rect width="30" height="32" fill="white" transform="translate(10 8)"/>
</clipPath>
</defs>
</svg>
