<svg width="20" height="20" viewBox="0 0 20 20" fill="none" xmlns="http://www.w3.org/2000/svg">
<path d="M19.4719 5.34765L10.6375 1.39452C10.2084 1.20272 9.74063 1.20272 9.31156 1.39452L0.501562 5.34765C0.201187 5.48436 0 5.84374 0 6.24999C0 6.65624 0.201187 7.01757 0.501562 7.15194L2.37719 7.99218C2.00563 8.60937 1.74406 9.32655 1.61 10.0996C1.25156 10.2891 1 10.7344 1 11.25C1 11.6388 1.15044 11.9723 1.37312 12.2016L0.597188 18.0219C0.54625 18.4023 0.78125 18.75 1.09031 18.75H2.90969C3.21866 18.75 3.45375 18.4032 3.40281 18.0223L2.62687 12.2019C2.84969 11.9726 3 11.6055 3 11.25C3 10.848 2.83831 10.5066 2.6025 10.2777C2.73537 9.58397 3.005 8.95663 3.38188 8.44062L9.33813 11.1059C9.76719 11.2976 10.235 11.2976 10.6641 11.1059L19.4984 7.15272C19.8 7.01561 20 6.65624 20 6.24999C20 5.84374 19.8 5.48436 19.4719 5.34765ZM10.9719 12.2812C10.6781 12.4258 10.3406 12.5 10 12.5C9.65875 12.5 9.32219 12.4271 9 12.283L4.4625 10.2539L4 15.832C4 17.4453 6.65938 18.75 10 18.75C13.2844 18.75 16 17.4453 16 15.8332L15.5381 10.2512L10.9719 12.2812Z" fill="white"/>
</svg>
