<svg width="21" height="21" viewBox="0 0 21 21" fill="none" xmlns="http://www.w3.org/2000/svg">
<path d="M19.0312 3.93756H11.1562L8.53125 1.31256H1.96875C0.881836 1.31256 0 2.1944 0 3.28131V17.7188C0 18.8057 0.881836 19.6876 1.96875 19.6876H19.0312C20.1182 19.6876 21 18.8057 21 17.7188V5.90631C21 4.8194 20.1182 3.93756 19.0312 3.93756ZM10.5 7.87506C11.9499 7.87506 13.125 9.05057 13.125 10.5001C13.125 11.9496 11.9499 13.1251 10.5 13.1251C9.0501 13.1251 7.875 11.9479 7.875 10.5001C7.875 9.05221 9.05215 7.87506 10.5 7.87506ZM14.4375 17.0626H6.5625C6.20009 17.0626 5.90625 16.7687 5.90625 16.4063C5.90625 15.3194 6.78809 14.4376 7.875 14.4376H13.125C14.2123 14.4376 15.0938 15.319 15.0938 16.4063C15.0938 16.7672 14.7984 17.0626 14.4375 17.0626Z" fill="white"/>
</svg>
