<svg width="20" height="20" viewBox="0 0 20 20" fill="none" xmlns="http://www.w3.org/2000/svg">
<path d="M17.7778 1.25006C19.0035 1.25006 20 2.3692 20 3.75006V5.00006H0V3.75006C0 2.3692 0.994792 1.25006 2.22222 1.25006H17.7778ZM20 16.2501C20 17.629 19.0035 18.7501 17.7778 18.7501H2.22222C0.994792 18.7501 0 17.629 0 16.2501V8.75006H20V16.2501ZM3.88889 13.7501C3.58333 13.7501 3.33333 14.0313 3.33333 14.3751C3.33333 14.7188 3.58333 15.0001 3.88889 15.0001H6.11111C6.41667 15.0001 6.66667 14.7188 6.66667 14.3751C6.66667 14.0313 6.41667 13.7501 6.11111 13.7501H3.88889ZM8.33333 15.0001H12.7778C13.0833 15.0001 13.3333 14.7188 13.3333 14.3751C13.3333 14.0313 13.0833 13.7501 12.7778 13.7501H8.33333C8.02778 13.7501 7.77778 14.0313 7.77778 14.3751C7.77778 14.7188 8.02778 15.0001 8.33333 15.0001Z" fill="white"/>
</svg>
