<svg width="32" height="32" viewBox="0 0 32 32" fill="none" xmlns="http://www.w3.org/2000/svg">
<g clip-path="url(#clip0_903_1656)">
<path d="M5.33333 24H20C20.7333 24 21.3333 23.4 21.3333 22.6667C21.3333 21.9333 20.7333 21.3333 20 21.3333H5.33333C4.6 21.3333 4 21.9333 4 22.6667C4 23.4 4.6 24 5.33333 24ZM5.33333 17.3333H16C16.7333 17.3333 17.3333 16.7333 17.3333 16C17.3333 15.2667 16.7333 14.6667 16 14.6667H5.33333C4.6 14.6667 4 15.2667 4 16C4 16.7333 4.6 17.3333 5.33333 17.3333ZM4 9.33333C4 10.0667 4.6 10.6667 5.33333 10.6667H20C20.7333 10.6667 21.3333 10.0667 21.3333 9.33333C21.3333 8.6 20.7333 8 20 8H5.33333C4.6 8 4 8.6 4 9.33333ZM27.0667 19.84L23.2267 16L27.0667 12.16C27.5867 11.64 27.5867 10.8 27.0667 10.28C26.5467 9.76 25.7067 9.76 25.1867 10.28L20.4 15.0667C19.88 15.5867 19.88 16.4267 20.4 16.9467L25.1867 21.7333C25.7067 22.2533 26.5467 22.2533 27.0667 21.7333C27.5733 21.2133 27.5867 20.36 27.0667 19.84Z" fill="white"/>
</g>
<defs>
<clipPath id="clip0_903_1656">
<rect width="32" height="32" fill="white"/>
</clipPath>
</defs>
</svg>
